<?xml version="1.0" ?><!DOCTYPE svg PUBLIC "-//W3C//DTD SVG 20000802//EN" "http://www.w3.org/TR/2000/CR-SVG-20000802/DTD/svg-20000802.dtd"><svg xmlns="http://www.w3.org/2000/svg" width="600" height="400"><rect x="360" y="34" width="191" height="197" fill="#17c346"/><rect x="11" y="21" width="422" height="317" fill="#757720"/><rect x="352" y="118" width="23" height="266" fill="#188069"/><rect x="304" y="4" width="295" height="108" fill="#7bfed3"/><rect x="13" y="169" width="420" height="208" fill="#6fbeb7"/><rect x="316" y="154" width="20" height="49" fill="#9888d6"/><rect x="378" y="114" width="167" height="160" fill="#9a5fe2"/><rect x="543" y="317" width="32" height="77" fill="#903ea5"/><rect x="531" y="373" width="27" height="25" fill="#b92227"/><rect x="243" y="346" width="283" height="14" fill="#683409"/><rect x="97" y="280" width="179" height="75" fill="#1da1db"/><rect x="31" y="175" width="440" height="104" fill="#aab3b3"/><rect x="370" y="67" width="196" height="12" fill="#bd0cfc"/><rect x="10" y="1" width="437" height="392" fill="#3bcb58"/><rect x="516" y="242" width="60" height="36" fill="#95d94f"/><rect x="522" y="333" width="46" height="13" fill="#064469"/></svg>